<?xml version="1.0" standalone="no"?>
<!DOCTYPE svg PUBLIC "-//W3C//DTD SVG 20010904//EN"
 "http://www.w3.org/TR/2001/REC-SVG-20010904/DTD/svg10.dtd">
<svg version="1.0" xmlns="http://www.w3.org/2000/svg"
 width="320.000000pt" height="320.000000pt" viewBox="0 0 320.000000 320.000000"
 preserveAspectRatio="xMidYMid meet">
<metadata>
Created by potrace 1.14, written by Peter Selinger 2001-2017
</metadata>
<g transform="translate(0.000000,320.000000) scale(0.100000,-0.100000)"
fill="#000000" stroke="none">
<path d="M1497 3024 c-1 -1 -36 -5 -77 -8 -61 -5 -207 -31 -280 -51 -26 -7
-153 -52 -195 -70 -111 -46 -253 -132 -340 -205 -44 -38 -147 -142 -175 -179
-50 -64 -61 -75 -83 -78 -127 -17 -222 -36 -267 -54 -24 -9 -25 -13 -25 -100
l0 -91 35 -18 c74 -38 109 -92 96 -148 -4 -15 -8 -37 -10 -49 -2 -11 -7 -29
-10 -40 -5 -18 -16 -103 -21 -173 -11 -132 0 -353 20 -420 3 -8 7 -31 9 -50 3
-19 13 -60 22 -90 10 -30 18 -57 19 -60 11 -51 111 -261 127 -268 4 -2 8 -8 8
-13 0 -16 79 -118 145 -188 48 -51 141 -130 220 -188 60 -44 230 -126 332
-161 137 -47 152 -50 318 -78 96 -16 424 -9 520 12 17 3 37 7 45 8 8 1 35 8
60 15 25 7 56 15 69 18 38 7 190 68 261 105 310 162 526 408 643 734 14 38 28
87 31 108 4 21 8 42 11 45 9 15 27 149 31 226 2 44 4 80 4 80 1 0 2 15 3 33 1
17 0 32 -3 32 -3 0 -5 30 -6 68 0 75 -8 138 -27 227 -11 51 -10 66 3 103 18
51 53 90 98 109 37 15 34 8 36 114 2 72 -1 83 -19 94 -30 19 -135 41 -279 60
-40 5 -50 13 -98 75 -47 62 -122 135 -203 198 -44 34 -86 68 -94 74 -30 25
-260 136 -327 157 -90 30 -200 56 -269 66 -103 15 -145 18 -243 19 -62 1 -114
1 -115 0z"/>
</g>
</svg>
